<?xml version="1.0" encoding="UTF-8" standalone="no"?>
<!DOCTYPE svg PUBLIC "-//W3C//DTD SVG 1.1//EN" "http://www.w3.org/Graphics/SVG/1.1/DTD/svg11.dtd">
<svg width="100%" height="100%" viewBox="0 0 513 107" version="1.1" xmlns="http://www.w3.org/2000/svg" xmlns:xlink="http://www.w3.org/1999/xlink" xml:space="preserve" style="fill-rule:evenodd;clip-rule:evenodd;stroke-linejoin:round;stroke-miterlimit:1.41421;">
    <g transform="matrix(1,0,0,1,-311.328,-762.328)">
        <g transform="matrix(4.16667,0,0,4.16667,0,0)">
            <g>
                <path d="M117.375,191.094C117.375,192.091 117.203,193.01 116.859,193.852C116.516,194.695 116.031,195.423 115.407,196.038C114.782,196.654 114.03,197.133 113.15,197.477C112.27,197.821 111.293,197.993 110.221,197.993L104.864,197.993L104.864,184.204L110.221,184.204C111.293,184.204 112.27,184.378 113.15,184.725C114.03,185.072 114.782,185.551 115.407,186.163C116.031,186.775 116.516,187.502 116.859,188.344C117.203,189.187 117.375,190.103 117.375,191.094ZM114.101,191.094C114.101,190.412 114.012,189.797 113.836,189.248C113.659,188.699 113.405,188.234 113.074,187.852C112.743,187.471 112.337,187.177 111.858,186.972C111.378,186.767 110.833,186.665 110.221,186.665L108.082,186.665L108.082,195.532L110.221,195.532C110.833,195.532 111.378,195.43 111.858,195.225C112.337,195.02 112.743,194.726 113.074,194.344C113.405,193.963 113.659,193.497 113.836,192.949C114.012,192.4 114.101,191.781 114.101,191.094Z" style="fill:rgb(63,48,88);fill-rule:nonzero;"/>
                <path d="M125.418,191.908C125.418,191.674 125.388,191.447 125.328,191.226C125.268,191.005 125.17,190.808 125.034,190.635C124.899,190.461 124.721,190.321 124.5,190.214C124.279,190.106 124.011,190.053 123.695,190.053C123.14,190.053 122.705,190.212 122.389,190.531C122.074,190.849 121.866,191.308 121.765,191.908L125.418,191.908ZM121.727,193.611C121.822,194.431 122.071,195.026 122.475,195.395C122.878,195.764 123.399,195.949 124.036,195.949C124.377,195.949 124.67,195.908 124.916,195.826C125.162,195.743 125.381,195.652 125.574,195.551C125.766,195.45 125.943,195.359 126.104,195.277C126.265,195.195 126.434,195.154 126.61,195.154C126.844,195.154 127.02,195.239 127.14,195.409L127.992,196.46C127.689,196.807 127.363,197.089 127.012,197.307C126.662,197.524 126.303,197.695 125.934,197.818C125.564,197.941 125.195,198.026 124.826,198.073C124.457,198.12 124.105,198.144 123.771,198.144C123.083,198.144 122.438,198.032 121.836,197.808C121.233,197.584 120.706,197.251 120.255,196.81C119.804,196.368 119.448,195.819 119.186,195.163C118.924,194.507 118.793,193.743 118.793,192.873C118.793,192.217 118.905,191.595 119.129,191.008C119.353,190.422 119.675,189.908 120.094,189.466C120.514,189.024 121.022,188.674 121.618,188.415C122.214,188.157 122.888,188.027 123.639,188.027C124.288,188.027 124.883,188.128 125.422,188.33C125.962,188.532 126.426,188.826 126.814,189.21C127.202,189.595 127.505,190.067 127.722,190.625C127.94,191.184 128.049,191.816 128.049,192.523C128.049,192.744 128.039,192.923 128.02,193.062C128.001,193.201 127.967,193.311 127.916,193.393C127.866,193.475 127.798,193.532 127.713,193.564C127.628,193.595 127.519,193.611 127.386,193.611L121.727,193.611Z" style="fill:rgb(63,48,88);fill-rule:nonzero;"/>
                <path d="M130.016,197.993L130.016,188.179L131.833,188.179C132.199,188.179 132.438,188.343 132.552,188.671L132.713,189.201C132.877,189.031 133.047,188.874 133.224,188.732C133.4,188.591 133.591,188.467 133.796,188.363C134.001,188.259 134.222,188.177 134.459,188.117C134.695,188.057 134.956,188.027 135.24,188.027C135.833,188.027 136.323,188.18 136.711,188.486C137.099,188.792 137.394,189.201 137.596,189.712C137.76,189.409 137.96,189.15 138.197,188.936C138.434,188.721 138.689,188.548 138.963,188.415C139.238,188.283 139.528,188.185 139.834,188.122C140.14,188.059 140.445,188.027 140.747,188.027C141.309,188.027 141.807,188.111 142.243,188.278C142.678,188.445 143.042,188.688 143.336,189.007C143.629,189.326 143.851,189.717 144.003,190.18C144.154,190.644 144.23,191.169 144.23,191.756L144.23,197.993L141.296,197.993L141.296,191.756C141.296,190.74 140.861,190.232 139.99,190.232C139.593,190.232 139.263,190.363 139.001,190.625C138.739,190.887 138.609,191.264 138.609,191.756L138.609,197.993L135.675,197.993L135.675,191.756C135.675,191.195 135.564,190.8 135.344,190.573C135.123,190.346 134.798,190.232 134.369,190.232C134.104,190.232 133.853,190.292 133.616,190.412C133.38,190.532 133.157,190.693 132.949,190.895L132.949,197.993L130.016,197.993Z" style="fill:rgb(63,48,88);fill-rule:nonzero;"/>
                <path d="M151.686,193.999C151.099,194.024 150.616,194.075 150.238,194.15C149.859,194.226 149.56,194.321 149.339,194.434C149.118,194.548 148.965,194.677 148.88,194.822C148.795,194.967 148.752,195.125 148.752,195.296C148.752,195.63 148.844,195.865 149.027,196.001C149.21,196.136 149.478,196.204 149.831,196.204C150.21,196.204 150.541,196.138 150.825,196.005C151.109,195.873 151.396,195.658 151.686,195.362L151.686,193.999ZM146.405,189.542C146.998,189.018 147.656,188.628 148.378,188.373C149.101,188.117 149.875,187.99 150.702,187.99C151.295,187.99 151.829,188.086 152.306,188.278C152.782,188.471 153.186,188.739 153.517,189.083C153.848,189.426 154.102,189.835 154.279,190.308C154.456,190.781 154.544,191.299 154.544,191.86L154.544,197.993L153.2,197.993C152.922,197.993 152.713,197.955 152.571,197.879C152.429,197.803 152.31,197.646 152.216,197.406L152.008,196.867C151.762,197.075 151.525,197.258 151.298,197.415C151.071,197.573 150.836,197.707 150.593,197.818C150.35,197.928 150.091,198.01 149.817,198.064C149.542,198.117 149.238,198.144 148.904,198.144C148.456,198.144 148.049,198.086 147.683,197.969C147.317,197.852 147.006,197.68 146.751,197.453C146.495,197.226 146.298,196.944 146.159,196.606C146.02,196.269 145.951,195.879 145.951,195.438C145.951,195.084 146.039,194.726 146.216,194.363C146.392,194.001 146.698,193.669 147.134,193.37C147.569,193.07 148.156,192.819 148.894,192.617C149.632,192.415 150.563,192.302 151.686,192.277L151.686,191.86C151.686,191.286 151.568,190.871 151.331,190.616C151.094,190.36 150.758,190.232 150.323,190.232C149.976,190.232 149.692,190.27 149.471,190.346C149.251,190.422 149.053,190.507 148.88,190.602C148.706,190.696 148.538,190.781 148.374,190.857C148.21,190.933 148.014,190.971 147.787,190.971C147.585,190.971 147.415,190.92 147.276,190.819C147.137,190.718 147.023,190.598 146.935,190.46L146.405,189.542Z" style="fill:rgb(63,48,88);fill-rule:nonzero;"/>
                <path d="M160.556,192.57C161.042,192.57 161.393,192.449 161.611,192.206C161.829,191.963 161.938,191.649 161.938,191.264C161.938,190.867 161.829,190.554 161.611,190.327C161.393,190.1 161.042,189.986 160.556,189.986C160.07,189.986 159.718,190.1 159.501,190.327C159.283,190.554 159.174,190.867 159.174,191.264C159.174,191.453 159.201,191.627 159.255,191.785C159.308,191.942 159.392,192.079 159.505,192.196C159.619,192.313 159.762,192.404 159.936,192.471C160.109,192.537 160.316,192.57 160.556,192.57ZM162.827,198.352C162.827,198.119 162.723,197.95 162.515,197.846C162.307,197.742 162.035,197.668 161.701,197.624C161.367,197.579 160.993,197.553 160.58,197.543C160.166,197.534 159.755,197.51 159.344,197.472C159.162,197.598 159.012,197.739 158.895,197.893C158.778,198.048 158.72,198.223 158.72,198.419C158.72,198.557 158.75,198.684 158.81,198.797C158.87,198.911 158.975,199.008 159.127,199.09C159.278,199.173 159.482,199.237 159.737,199.284C159.993,199.332 160.316,199.355 160.707,199.355C161.13,199.355 161.477,199.33 161.748,199.28C162.02,199.229 162.236,199.16 162.397,199.072C162.557,198.983 162.669,198.878 162.733,198.755C162.796,198.631 162.827,198.497 162.827,198.352ZM165.723,188.482L165.723,189.551C165.723,189.715 165.677,189.844 165.586,189.939C165.494,190.034 165.338,190.106 165.117,190.157L164.408,190.318C164.445,190.456 164.475,190.598 164.497,190.744C164.52,190.889 164.531,191.04 164.531,191.198C164.531,191.69 164.428,192.132 164.223,192.523C164.018,192.914 163.737,193.247 163.381,193.521C163.024,193.796 162.603,194.007 162.117,194.155C161.632,194.303 161.111,194.378 160.556,194.378C160.404,194.378 160.256,194.373 160.111,194.363C159.966,194.354 159.824,194.337 159.685,194.311C159.471,194.444 159.363,194.592 159.363,194.756C159.363,194.92 159.452,195.038 159.628,195.111C159.805,195.184 160.039,195.234 160.329,195.262C160.619,195.291 160.949,195.31 161.318,195.319C161.687,195.329 162.064,195.351 162.449,195.385C162.833,195.42 163.21,195.479 163.58,195.561C163.949,195.643 164.278,195.775 164.568,195.958C164.859,196.141 165.092,196.385 165.269,196.691C165.445,196.997 165.534,197.387 165.534,197.86C165.534,198.302 165.427,198.734 165.212,199.157C164.997,199.579 164.682,199.955 164.266,200.283C163.849,200.611 163.338,200.874 162.733,201.073C162.127,201.272 161.433,201.371 160.65,201.371C159.881,201.371 159.217,201.299 158.658,201.154C158.1,201.008 157.636,200.818 157.267,200.581C156.898,200.344 156.625,200.072 156.449,199.762C156.272,199.453 156.184,199.131 156.184,198.797C156.184,198.362 156.31,197.999 156.562,197.709C156.815,197.419 157.168,197.185 157.622,197.008C157.382,196.863 157.193,196.677 157.054,196.45C156.915,196.223 156.846,195.93 156.846,195.57C156.846,195.425 156.871,195.272 156.922,195.111C156.972,194.95 157.053,194.792 157.163,194.638C157.274,194.483 157.411,194.337 157.575,194.198C157.739,194.059 157.934,193.936 158.162,193.829C157.65,193.557 157.247,193.199 156.95,192.755C156.654,192.31 156.505,191.791 156.505,191.198C156.505,190.706 156.609,190.262 156.818,189.868C157.026,189.474 157.311,189.139 157.674,188.865C158.037,188.591 158.464,188.379 158.956,188.231C159.449,188.083 159.982,188.008 160.556,188.008C161.389,188.008 162.127,188.166 162.77,188.482L165.723,188.482Z" style="fill:rgb(63,48,88);fill-rule:nonzero;"/>
                <path d="M172.638,188.027C173.382,188.027 174.06,188.144 174.672,188.378C175.284,188.611 175.81,188.945 176.248,189.381C176.687,189.816 177.027,190.344 177.27,190.966C177.513,191.587 177.635,192.286 177.635,193.062C177.635,193.844 177.513,194.549 177.27,195.177C177.027,195.805 176.687,196.338 176.248,196.777C175.81,197.215 175.284,197.553 174.672,197.789C174.06,198.026 173.382,198.144 172.638,198.144C171.887,198.144 171.204,198.026 170.589,197.789C169.974,197.553 169.444,197.215 168.999,196.777C168.554,196.338 168.21,195.805 167.967,195.177C167.724,194.549 167.603,193.844 167.603,193.062C167.603,192.286 167.724,191.587 167.967,190.966C168.21,190.344 168.554,189.816 168.999,189.381C169.444,188.945 169.974,188.611 170.589,188.378C171.204,188.144 171.887,188.027 172.638,188.027ZM172.638,195.967C173.313,195.967 173.81,195.729 174.128,195.253C174.447,194.777 174.606,194.053 174.606,193.081C174.606,192.109 174.447,191.387 174.128,190.914C173.81,190.441 173.313,190.204 172.638,190.204C171.944,190.204 171.436,190.441 171.114,190.914C170.792,191.387 170.631,192.109 170.631,193.081C170.631,194.053 170.792,194.777 171.114,195.253C171.436,195.729 171.944,195.967 172.638,195.967Z" style="fill:rgb(63,48,88);fill-rule:nonzero;"/>
                <path d="M183.354,192.57C183.84,192.57 184.192,192.449 184.41,192.206C184.627,191.963 184.736,191.649 184.736,191.264C184.736,190.867 184.627,190.554 184.41,190.327C184.192,190.1 183.84,189.986 183.354,189.986C182.869,189.986 182.517,190.1 182.299,190.327C182.082,190.554 181.973,190.867 181.973,191.264C181.973,191.453 181.999,191.627 182.053,191.785C182.107,191.942 182.19,192.079 182.304,192.196C182.417,192.313 182.561,192.404 182.735,192.471C182.908,192.537 183.115,192.57 183.354,192.57ZM185.626,198.352C185.626,198.119 185.522,197.95 185.313,197.846C185.105,197.742 184.834,197.668 184.499,197.624C184.165,197.579 183.791,197.553 183.378,197.543C182.965,197.534 182.553,197.51 182.143,197.472C181.96,197.598 181.81,197.739 181.694,197.893C181.577,198.048 181.518,198.223 181.518,198.419C181.518,198.557 181.548,198.684 181.608,198.797C181.668,198.911 181.774,199.008 181.925,199.09C182.077,199.173 182.28,199.237 182.536,199.284C182.791,199.332 183.115,199.355 183.506,199.355C183.929,199.355 184.276,199.33 184.547,199.28C184.818,199.229 185.034,199.16 185.195,199.072C185.356,198.983 185.468,198.878 185.531,198.755C185.594,198.631 185.626,198.497 185.626,198.352ZM188.522,188.482L188.522,189.551C188.522,189.715 188.476,189.844 188.384,189.939C188.293,190.034 188.137,190.106 187.916,190.157L187.206,190.318C187.244,190.456 187.274,190.598 187.296,190.744C187.318,190.889 187.329,191.04 187.329,191.198C187.329,191.69 187.227,192.132 187.022,192.523C186.817,192.914 186.536,193.247 186.179,193.521C185.823,193.796 185.402,194.007 184.916,194.155C184.43,194.303 183.91,194.378 183.354,194.378C183.203,194.378 183.055,194.373 182.91,194.363C182.764,194.354 182.623,194.337 182.484,194.311C182.269,194.444 182.162,194.592 182.162,194.756C182.162,194.92 182.25,195.038 182.427,195.111C182.604,195.184 182.837,195.234 183.127,195.262C183.417,195.291 183.747,195.31 184.116,195.319C184.485,195.329 184.862,195.351 185.247,195.385C185.632,195.42 186.009,195.479 186.378,195.561C186.747,195.643 187.077,195.775 187.367,195.958C187.657,196.141 187.891,196.385 188.067,196.691C188.244,196.997 188.332,197.387 188.332,197.86C188.332,198.302 188.225,198.734 188.011,199.157C187.796,199.579 187.481,199.955 187.064,200.283C186.648,200.611 186.137,200.874 185.531,201.073C184.925,201.272 184.231,201.371 183.449,201.371C182.679,201.371 182.015,201.299 181.457,201.154C180.899,201.008 180.435,200.818 180.066,200.581C179.697,200.344 179.424,200.072 179.247,199.762C179.07,199.453 178.982,199.131 178.982,198.797C178.982,198.362 179.108,197.999 179.361,197.709C179.613,197.419 179.966,197.185 180.421,197.008C180.181,196.863 179.992,196.677 179.853,196.45C179.714,196.223 179.645,195.93 179.645,195.57C179.645,195.425 179.67,195.272 179.72,195.111C179.771,194.95 179.851,194.792 179.962,194.638C180.072,194.483 180.209,194.337 180.373,194.198C180.537,194.059 180.733,193.936 180.96,193.829C180.449,193.557 180.045,193.199 179.749,192.755C179.452,192.31 179.304,191.791 179.304,191.198C179.304,190.706 179.408,190.262 179.616,189.868C179.824,189.474 180.11,189.139 180.473,188.865C180.835,188.591 181.263,188.379 181.755,188.231C182.247,188.083 182.78,188.008 183.354,188.008C184.187,188.008 184.925,188.166 185.569,188.482L188.522,188.482Z" style="fill:rgb(63,48,88);fill-rule:nonzero;"/>
                <path d="M194.046,184.802C194.012,184.843 193.98,184.876 193.948,184.9C193.917,184.924 193.872,184.936 193.814,184.936C193.759,184.936 193.709,184.923 193.664,184.896C193.619,184.869 193.569,184.84 193.514,184.807C193.458,184.775 193.393,184.745 193.318,184.719C193.244,184.692 193.151,184.679 193.04,184.679C192.902,184.679 192.783,184.704 192.683,184.755C192.583,184.806 192.501,184.878 192.435,184.972C192.37,185.066 192.322,185.181 192.291,185.318C192.259,185.454 192.244,185.608 192.244,185.779C192.244,186.139 192.313,186.415 192.452,186.608C192.59,186.801 192.782,186.897 193.025,186.897C193.156,186.897 193.259,186.881 193.335,186.849C193.411,186.816 193.475,186.78 193.528,186.74C193.581,186.7 193.63,186.663 193.675,186.63C193.72,186.596 193.776,186.579 193.843,186.579C193.932,186.579 194,186.611 194.046,186.677L194.372,187.078C194.256,187.211 194.134,187.319 194.006,187.402C193.878,187.485 193.747,187.551 193.613,187.598C193.479,187.645 193.345,187.677 193.21,187.695C193.075,187.713 192.943,187.723 192.815,187.723C192.586,187.723 192.367,187.679 192.159,187.592C191.95,187.505 191.766,187.379 191.608,187.214C191.45,187.049 191.325,186.845 191.232,186.604C191.139,186.363 191.093,186.088 191.093,185.779C191.093,185.509 191.133,185.256 191.214,185.021C191.295,184.786 191.414,184.582 191.572,184.409C191.73,184.237 191.926,184.101 192.159,184.002C192.391,183.903 192.661,183.854 192.967,183.854C193.262,183.854 193.52,183.901 193.742,183.995C193.964,184.089 194.164,184.227 194.343,184.407L194.046,184.802Z" style="fill:rgb(63,48,88);fill-rule:nonzero;"/>
                <path d="M197.8,184.36C197.8,184.438 197.787,184.512 197.76,184.585C197.733,184.657 197.698,184.716 197.655,184.762L196.088,186.832L197.764,186.832L197.764,187.665L194.796,187.665L194.796,187.209C194.796,187.163 194.808,187.105 194.832,187.035C194.856,186.965 194.892,186.9 194.941,186.839L196.522,184.744L194.897,184.744L194.897,183.912L197.8,183.912L197.8,184.36Z" style="fill:rgb(63,48,88);fill-rule:nonzero;"/>
                <path d="M111.499,204.689L111.499,205.42L112.451,205.42L112.451,205.85L111.499,205.85L111.499,206.905L110.949,206.905L110.949,204.261L112.633,204.261L112.633,204.689L111.499,204.689Z" style="fill:rgb(63,48,88);fill-rule:nonzero;"/>
                <path d="M114.558,205.901L114.272,205.092C114.255,205.05 114.237,205 114.218,204.943C114.199,204.886 114.181,204.824 114.164,204.757C114.147,204.825 114.129,204.888 114.11,204.945C114.091,205.003 114.074,205.053 114.057,205.096L113.772,205.901L114.558,205.901ZM115.476,206.905L115.052,206.905C115.004,206.905 114.966,206.894 114.936,206.872C114.906,206.849 114.884,206.82 114.869,206.785L114.691,206.28L113.637,206.28L113.459,206.785C113.447,206.815 113.425,206.843 113.395,206.868C113.365,206.893 113.326,206.905 113.28,206.905L112.852,206.905L113.885,204.261L114.445,204.261L115.476,206.905Z" style="fill:rgb(63,48,88);fill-rule:nonzero;"/>
                <path d="M117.821,206.255C117.851,206.255 117.877,206.266 117.897,206.288L118.114,206.519C118.007,206.655 117.875,206.758 117.716,206.829C117.558,206.899 117.369,206.934 117.15,206.934C116.952,206.934 116.774,206.901 116.616,206.833C116.458,206.766 116.324,206.672 116.214,206.552C116.103,206.431 116.018,206.289 115.958,206.124C115.899,205.958 115.869,205.778 115.869,205.582C115.869,205.451 115.883,205.326 115.912,205.208C115.94,205.089 115.982,204.98 116.037,204.881C116.091,204.781 116.157,204.691 116.235,204.611C116.312,204.531 116.399,204.462 116.496,204.406C116.593,204.349 116.699,204.306 116.814,204.277C116.929,204.247 117.051,204.232 117.181,204.232C117.278,204.232 117.37,204.24 117.457,204.257C117.544,204.274 117.625,204.298 117.701,204.328C117.776,204.359 117.845,204.396 117.909,204.439C117.973,204.482 118.03,204.529 118.081,204.58L117.897,204.831C117.886,204.847 117.872,204.861 117.855,204.873C117.838,204.886 117.815,204.892 117.786,204.892C117.757,204.892 117.728,204.881 117.698,204.861C117.668,204.84 117.632,204.817 117.589,204.791C117.545,204.766 117.491,204.743 117.426,204.722C117.361,204.701 117.279,204.691 117.179,204.691C117.069,204.691 116.967,204.711 116.875,204.751C116.783,204.791 116.703,204.849 116.637,204.925C116.571,205.001 116.52,205.094 116.483,205.205C116.447,205.316 116.429,205.441 116.429,205.582C116.429,205.724 116.448,205.851 116.488,205.962C116.527,206.073 116.581,206.167 116.65,206.244C116.719,206.32 116.799,206.378 116.891,206.418C116.982,206.457 117.08,206.477 117.185,206.477C117.247,206.477 117.303,206.474 117.353,206.468C117.404,206.462 117.451,206.452 117.494,206.437C117.537,206.422 117.578,206.404 117.616,206.38C117.654,206.357 117.693,206.328 117.732,206.293C117.745,206.282 117.759,206.273 117.773,206.266C117.788,206.258 117.804,206.255 117.821,206.255Z" style="fill:rgb(63,48,88);fill-rule:nonzero;"/>
                <path d="M120.694,204.702L119.921,204.702L119.921,206.905L119.373,206.905L119.373,204.702L118.6,204.702L118.6,204.261L120.694,204.261L120.694,204.702Z" style="fill:rgb(63,48,88);fill-rule:nonzero;"/>
                <path d="M123.124,206.255C123.154,206.255 123.18,206.266 123.201,206.288L123.418,206.519C123.311,206.655 123.178,206.758 123.019,206.829C122.861,206.899 122.672,206.934 122.453,206.934C122.255,206.934 122.077,206.901 121.92,206.833C121.762,206.766 121.627,206.672 121.517,206.552C121.406,206.431 121.321,206.289 121.262,206.124C121.202,205.958 121.172,205.778 121.172,205.582C121.172,205.451 121.187,205.326 121.215,205.208C121.244,205.089 121.285,204.98 121.34,204.881C121.395,204.781 121.461,204.691 121.538,204.611C121.615,204.531 121.702,204.462 121.799,204.406C121.896,204.349 122.002,204.306 122.117,204.277C122.232,204.247 122.354,204.232 122.484,204.232C122.582,204.232 122.674,204.24 122.761,204.257C122.847,204.274 122.929,204.298 123.004,204.328C123.079,204.359 123.149,204.396 123.212,204.439C123.276,204.482 123.334,204.529 123.385,204.58L123.201,204.831C123.19,204.847 123.176,204.861 123.159,204.873C123.142,204.886 123.119,204.892 123.089,204.892C123.06,204.892 123.031,204.881 123.001,204.861C122.971,204.84 122.935,204.817 122.892,204.791C122.849,204.766 122.795,204.743 122.73,204.722C122.665,204.701 122.582,204.691 122.483,204.691C122.372,204.691 122.271,204.711 122.178,204.751C122.086,204.791 122.007,204.849 121.94,204.925C121.874,205.001 121.823,205.094 121.787,205.205C121.75,205.316 121.732,205.441 121.732,205.582C121.732,205.724 121.752,205.851 121.791,205.962C121.831,206.073 121.885,206.167 121.953,206.244C122.022,206.32 122.102,206.378 122.194,206.418C122.286,206.457 122.384,206.477 122.488,206.477C122.55,206.477 122.606,206.474 122.657,206.468C122.707,206.462 122.754,206.452 122.797,206.437C122.84,206.422 122.881,206.404 122.919,206.38C122.957,206.357 122.996,206.328 123.035,206.293C123.048,206.282 123.062,206.273 123.077,206.266C123.091,206.258 123.107,206.255 123.124,206.255Z" style="fill:rgb(63,48,88);fill-rule:nonzero;"/>
                <path d="M126.291,204.261L126.291,206.905L125.74,206.905L125.74,205.766L124.576,205.766L124.576,206.905L124.025,206.905L124.025,204.261L124.576,204.261L124.576,205.384L125.74,205.384L125.74,204.261L126.291,204.261Z" style="fill:rgb(63,48,88);fill-rule:nonzero;"/>
                <path d="M127.795,204.689L127.795,205.369L128.677,205.369L128.677,205.783L127.795,205.783L127.795,206.477L128.929,206.477L128.929,206.905L127.245,206.905L127.245,204.261L128.929,204.261L128.929,204.689L127.795,204.689Z" style="fill:rgb(63,48,88);fill-rule:nonzero;"/>
                <path d="M131.437,206.255C131.468,206.255 131.493,206.266 131.514,206.288L131.731,206.519C131.624,206.655 131.491,206.758 131.332,206.829C131.174,206.899 130.985,206.934 130.767,206.934C130.569,206.934 130.391,206.901 130.233,206.833C130.075,206.766 129.94,206.672 129.83,206.552C129.719,206.431 129.634,206.289 129.575,206.124C129.515,205.958 129.485,205.778 129.485,205.582C129.485,205.451 129.5,205.326 129.528,205.208C129.557,205.089 129.598,204.98 129.653,204.881C129.708,204.781 129.774,204.691 129.851,204.611C129.928,204.531 130.015,204.462 130.112,204.406C130.21,204.349 130.316,204.306 130.43,204.277C130.545,204.247 130.668,204.232 130.798,204.232C130.895,204.232 130.987,204.24 131.074,204.257C131.161,204.274 131.242,204.298 131.317,204.328C131.392,204.359 131.462,204.396 131.526,204.439C131.589,204.482 131.647,204.529 131.698,204.58L131.514,204.831C131.503,204.847 131.489,204.861 131.472,204.873C131.455,204.886 131.432,204.892 131.403,204.892C131.373,204.892 131.344,204.881 131.314,204.861C131.284,204.84 131.248,204.817 131.205,204.791C131.162,204.766 131.108,204.743 131.043,204.722C130.978,204.701 130.895,204.691 130.796,204.691C130.685,204.691 130.584,204.711 130.491,204.751C130.399,204.791 130.32,204.849 130.254,204.925C130.187,205.001 130.136,205.094 130.1,205.205C130.063,205.316 130.045,205.441 130.045,205.582C130.045,205.724 130.065,205.851 130.104,205.962C130.144,206.073 130.198,206.167 130.266,206.244C130.335,206.32 130.415,206.378 130.507,206.418C130.599,206.457 130.697,206.477 130.801,206.477C130.863,206.477 130.919,206.474 130.97,206.468C131.02,206.462 131.067,206.452 131.11,206.437C131.153,206.422 131.194,206.404 131.232,206.38C131.27,206.357 131.309,206.328 131.348,206.293C131.361,206.282 131.375,206.273 131.39,206.266C131.404,206.258 131.42,206.255 131.437,206.255Z" style="fill:rgb(63,48,88);fill-rule:nonzero;"/>
                <path d="M132.985,205.353L133.093,205.353C133.183,205.353 133.248,205.325 133.288,205.269L133.957,204.374C133.988,204.332 134.023,204.302 134.06,204.286C134.098,204.269 134.144,204.261 134.199,204.261L134.673,204.261L133.831,205.345C133.776,205.416 133.72,205.466 133.661,205.497C133.704,205.514 133.742,205.536 133.776,205.563C133.81,205.59 133.843,205.627 133.875,205.672L134.738,206.905L134.252,206.905C134.22,206.905 134.193,206.903 134.171,206.898C134.148,206.893 134.129,206.886 134.111,206.878C134.094,206.869 134.08,206.859 134.068,206.846C134.056,206.833 134.044,206.818 134.033,206.801L133.353,205.85C133.33,205.817 133.303,205.794 133.271,205.78C133.24,205.766 133.195,205.759 133.138,205.759L132.985,205.759L132.985,206.905L132.439,206.905L132.439,204.261L132.985,204.261L132.985,205.353Z" style="fill:rgb(63,48,88);fill-rule:nonzero;"/>
                <path d="M137.423,205.577C137.594,205.577 137.72,205.536 137.799,205.453C137.879,205.37 137.918,205.257 137.918,205.114C137.918,205.048 137.908,204.988 137.888,204.934C137.868,204.88 137.838,204.834 137.797,204.796C137.757,204.758 137.705,204.728 137.643,204.708C137.581,204.687 137.508,204.677 137.423,204.677L137.077,204.677L137.077,205.577L137.423,205.577ZM137.423,204.261C137.604,204.261 137.76,204.282 137.892,204.325C138.024,204.367 138.132,204.427 138.217,204.503C138.302,204.578 138.365,204.669 138.406,204.773C138.447,204.878 138.467,204.991 138.467,205.114C138.467,205.244 138.446,205.363 138.403,205.471C138.361,205.579 138.296,205.672 138.21,205.75C138.124,205.828 138.015,205.888 137.884,205.931C137.753,205.974 137.599,205.996 137.423,205.996L137.077,205.996L137.077,206.905L136.53,206.905L136.53,204.261L137.423,204.261Z" style="fill:rgb(63,48,88);fill-rule:nonzero;"/>
                <path d="M141.77,205.582C141.77,205.775 141.737,205.955 141.672,206.12C141.607,206.285 141.516,206.428 141.397,206.548C141.279,206.668 141.136,206.763 140.97,206.831C140.804,206.9 140.619,206.934 140.416,206.934C140.213,206.934 140.028,206.9 139.862,206.831C139.696,206.763 139.553,206.668 139.434,206.548C139.315,206.428 139.223,206.285 139.158,206.12C139.093,205.955 139.06,205.775 139.06,205.582C139.06,205.389 139.093,205.21 139.158,205.046C139.223,204.881 139.315,204.739 139.434,204.618C139.553,204.498 139.696,204.404 139.862,204.335C140.028,204.266 140.213,204.232 140.416,204.232C140.619,204.232 140.804,204.266 140.97,204.335C141.136,204.404 141.279,204.498 141.397,204.619C141.516,204.74 141.607,204.883 141.672,205.047C141.737,205.212 141.77,205.39 141.77,205.582ZM141.211,205.582C141.211,205.444 141.192,205.32 141.156,205.21C141.119,205.1 141.067,205.006 140.998,204.929C140.93,204.852 140.846,204.793 140.749,204.752C140.651,204.711 140.54,204.691 140.416,204.691C140.292,204.691 140.181,204.711 140.082,204.752C139.984,204.793 139.901,204.852 139.832,204.929C139.763,205.006 139.711,205.1 139.674,205.21C139.638,205.32 139.62,205.444 139.62,205.582C139.62,205.722 139.638,205.847 139.674,205.957C139.711,206.067 139.763,206.16 139.832,206.236C139.901,206.313 139.984,206.372 140.082,206.412C140.181,206.453 140.292,206.473 140.416,206.473C140.54,206.473 140.651,206.453 140.749,206.412C140.846,206.372 140.93,206.313 140.998,206.236C141.067,206.16 141.119,206.067 141.156,205.957C141.192,205.847 141.211,205.722 141.211,205.582Z" style="fill:rgb(63,48,88);fill-rule:nonzero;"/>
                <path d="M144.04,206.461L144.04,206.905L142.471,206.905L142.471,204.261L143.018,204.261L143.018,206.461L144.04,206.461Z" style="fill:rgb(63,48,88);fill-rule:nonzero;"/>
                <rect x="144.773" y="204.261" width="0.55" height="2.644" style="fill:rgb(63,48,88);fill-rule:nonzero;"/>
                <path d="M148.149,204.702L147.377,204.702L147.377,206.905L146.828,206.905L146.828,204.702L146.055,204.702L146.055,204.261L148.149,204.261L148.149,204.702Z" style="fill:rgb(63,48,88);fill-rule:nonzero;"/>
                <rect x="148.779" y="204.261" width="0.55" height="2.644" style="fill:rgb(63,48,88);fill-rule:nonzero;"/>
                <path d="M152.084,206.255C152.114,206.255 152.14,206.266 152.161,206.288L152.377,206.519C152.27,206.655 152.138,206.758 151.979,206.829C151.821,206.899 151.632,206.934 151.413,206.934C151.215,206.934 151.037,206.901 150.879,206.833C150.721,206.766 150.587,206.672 150.477,206.552C150.366,206.431 150.281,206.289 150.222,206.124C150.162,205.958 150.132,205.778 150.132,205.582C150.132,205.451 150.147,205.326 150.175,205.208C150.204,205.089 150.245,204.98 150.3,204.881C150.355,204.781 150.421,204.691 150.498,204.611C150.575,204.531 150.662,204.462 150.759,204.406C150.856,204.349 150.962,204.306 151.077,204.277C151.192,204.247 151.314,204.232 151.444,204.232C151.542,204.232 151.634,204.24 151.72,204.257C151.807,204.274 151.888,204.298 151.964,204.328C152.039,204.359 152.109,204.396 152.172,204.439C152.236,204.482 152.294,204.529 152.345,204.58L152.161,204.831C152.15,204.847 152.136,204.861 152.119,204.873C152.102,204.886 152.079,204.892 152.049,204.892C152.02,204.892 151.991,204.881 151.961,204.861C151.931,204.84 151.895,204.817 151.852,204.791C151.809,204.766 151.754,204.743 151.689,204.722C151.624,204.701 151.542,204.691 151.443,204.691C151.332,204.691 151.231,204.711 151.138,204.751C151.046,204.791 150.967,204.849 150.9,204.925C150.834,205.001 150.783,205.094 150.746,205.205C150.71,205.316 150.692,205.441 150.692,205.582C150.692,205.724 150.711,205.851 150.751,205.962C150.79,206.073 150.845,206.167 150.913,206.244C150.982,206.32 151.062,206.378 151.154,206.418C151.245,206.457 151.344,206.477 151.448,206.477C151.51,206.477 151.566,206.474 151.617,206.468C151.667,206.462 151.714,206.452 151.757,206.437C151.8,206.422 151.841,206.404 151.879,206.38C151.917,206.357 151.956,206.328 151.995,206.293C152.008,206.282 152.022,206.273 152.037,206.266C152.051,206.258 152.067,206.255 152.084,206.255Z" style="fill:rgb(63,48,88);fill-rule:nonzero;"/>
                <path d="M153.632,205.353L153.74,205.353C153.83,205.353 153.895,205.325 153.935,205.269L154.603,204.374C154.635,204.332 154.67,204.302 154.707,204.286C154.745,204.269 154.791,204.261 154.846,204.261L155.32,204.261L154.478,205.345C154.423,205.416 154.366,205.466 154.308,205.497C154.351,205.514 154.389,205.536 154.423,205.563C154.457,205.59 154.49,205.627 154.521,205.672L155.385,206.905L154.899,206.905C154.867,206.905 154.84,206.903 154.818,206.898C154.795,206.893 154.775,206.886 154.758,206.878C154.741,206.869 154.727,206.859 154.715,206.846C154.702,206.833 154.691,206.818 154.68,206.801L154,205.85C153.977,205.817 153.95,205.794 153.918,205.78C153.887,205.766 153.842,205.759 153.785,205.759L153.632,205.759L153.632,206.905L153.085,206.905L153.085,204.261L153.632,204.261L153.632,205.353Z" style="fill:rgb(63,48,88);fill-rule:nonzero;"/>
                <path d="M157.114,205.888L157.114,206.905L156.567,206.905L156.567,205.888L155.607,204.261L156.088,204.261C156.135,204.261 156.173,204.272 156.202,204.295C156.23,204.317 156.253,204.346 156.27,204.381L156.704,205.214C156.733,205.27 156.759,205.322 156.783,205.371C156.807,205.419 156.828,205.468 156.846,205.517C156.863,205.468 156.883,205.419 156.905,205.37C156.928,205.321 156.953,205.269 156.981,205.214L157.411,204.381C157.426,204.352 157.447,204.325 157.477,204.299C157.506,204.274 157.543,204.261 157.59,204.261L158.074,204.261L157.114,205.888ZM157.642,203.508L157.054,204.03C157.04,204.041 157.028,204.049 157.015,204.056C157.003,204.063 156.991,204.068 156.978,204.072C156.965,204.075 156.951,204.078 156.936,204.079C156.921,204.08 156.904,204.081 156.886,204.081L156.522,204.081L156.886,203.587C156.899,203.569 156.913,203.554 156.925,203.544C156.938,203.534 156.952,203.526 156.967,203.52C156.982,203.515 157,203.511 157.019,203.51C157.039,203.509 157.061,203.508 157.087,203.508L157.642,203.508Z" style="fill:rgb(63,48,88);fill-rule:nonzero;"/>
                <path d="M160.317,206.255C160.348,206.255 160.373,206.266 160.394,206.288L160.611,206.519C160.504,206.655 160.371,206.758 160.212,206.829C160.054,206.899 159.865,206.934 159.647,206.934C159.448,206.934 159.271,206.901 159.113,206.833C158.955,206.766 158.82,206.672 158.71,206.552C158.599,206.431 158.514,206.289 158.455,206.124C158.395,205.958 158.365,205.778 158.365,205.582C158.365,205.451 158.38,205.326 158.408,205.208C158.437,205.089 158.478,204.98 158.533,204.881C158.588,204.781 158.654,204.691 158.731,204.611C158.808,204.531 158.895,204.462 158.992,204.406C159.089,204.349 159.195,204.306 159.31,204.277C159.425,204.247 159.548,204.232 159.677,204.232C159.775,204.232 159.867,204.24 159.954,204.257C160.04,204.274 160.122,204.298 160.197,204.328C160.272,204.359 160.342,204.396 160.406,204.439C160.469,204.482 160.527,204.529 160.578,204.58L160.394,204.831C160.383,204.847 160.369,204.861 160.352,204.873C160.335,204.886 160.312,204.892 160.283,204.892C160.253,204.892 160.224,204.881 160.194,204.861C160.164,204.84 160.128,204.817 160.085,204.791C160.042,204.766 159.988,204.743 159.923,204.722C159.858,204.701 159.775,204.691 159.676,204.691C159.565,204.691 159.464,204.711 159.371,204.751C159.279,204.791 159.2,204.849 159.134,204.925C159.067,205.001 159.016,205.094 158.98,205.205C158.943,205.316 158.925,205.441 158.925,205.582C158.925,205.724 158.945,205.851 158.984,205.962C159.024,206.073 159.078,206.167 159.146,206.244C159.215,206.32 159.295,206.378 159.387,206.418C159.479,206.457 159.577,206.477 159.681,206.477C159.743,206.477 159.799,206.474 159.85,206.468C159.9,206.462 159.947,206.452 159.99,206.437C160.033,206.422 160.074,206.404 160.112,206.38C160.15,206.357 160.189,206.328 160.228,206.293C160.241,206.282 160.255,206.273 160.27,206.266C160.284,206.258 160.3,206.255 160.317,206.255Z" style="fill:rgb(63,48,88);fill-rule:nonzero;"/>
                <path d="M163.584,204.261L163.584,206.905L163.033,206.905L163.033,205.766L161.869,205.766L161.869,206.905L161.319,206.905L161.319,204.261L161.869,204.261L161.869,205.384L163.033,205.384L163.033,204.261L163.584,204.261Z" style="fill:rgb(63,48,88);fill-rule:nonzero;"/>
                <path d="M168.138,205.582C168.138,205.775 168.105,205.953 168.04,206.115C167.975,206.278 167.884,206.417 167.765,206.534C167.647,206.65 167.504,206.741 167.338,206.807C167.171,206.872 166.987,206.905 166.784,206.905L165.767,206.905L165.767,204.261L166.784,204.261C166.987,204.261 167.171,204.294 167.338,204.359C167.504,204.425 167.647,204.517 167.765,204.634C167.884,204.751 167.975,204.89 168.04,205.052C168.105,205.214 168.138,205.39 168.138,205.582ZM167.576,205.582C167.576,205.444 167.558,205.319 167.522,205.209C167.485,205.098 167.433,205.005 167.365,204.928C167.297,204.852 167.214,204.793 167.116,204.751C167.019,204.71 166.908,204.689 166.784,204.689L166.317,204.689L166.317,206.477L166.784,206.477C166.908,206.477 167.019,206.457 167.116,206.416C167.214,206.375 167.297,206.316 167.365,206.239C167.433,206.162 167.485,206.068 167.522,205.958C167.558,205.847 167.576,205.722 167.576,205.582Z" style="fill:rgb(63,48,88);fill-rule:nonzero;"/>
                <rect x="168.84" y="204.261" width="0.55" height="2.644" style="fill:rgb(63,48,88);fill-rule:nonzero;"/>
                <path d="M171.777,204.768C171.76,204.796 171.743,204.816 171.725,204.829C171.708,204.841 171.685,204.848 171.657,204.848C171.63,204.848 171.601,204.838 171.57,204.82C171.539,204.801 171.503,204.78 171.462,204.759C171.421,204.737 171.373,204.716 171.32,204.698C171.266,204.679 171.204,204.669 171.132,204.669C171.006,204.669 170.911,204.698 170.848,204.754C170.785,204.811 170.753,204.884 170.753,204.975C170.753,205.034 170.77,205.082 170.805,205.12C170.84,205.159 170.885,205.192 170.942,205.22C170.998,205.248 171.062,205.272 171.134,205.294C171.206,205.316 171.279,205.34 171.354,205.366C171.43,205.392 171.503,205.423 171.575,205.458C171.647,205.494 171.711,205.538 171.767,205.591C171.824,205.645 171.869,205.71 171.904,205.787C171.938,205.864 171.956,205.958 171.956,206.069C171.956,206.189 171.935,206.302 171.893,206.407C171.851,206.512 171.791,206.604 171.712,206.682C171.633,206.76 171.535,206.822 171.419,206.867C171.303,206.912 171.172,206.934 171.025,206.934C170.941,206.934 170.857,206.926 170.774,206.909C170.691,206.892 170.611,206.868 170.533,206.838C170.456,206.808 170.384,206.771 170.316,206.729C170.248,206.686 170.188,206.639 170.137,206.586L170.297,206.328C170.311,206.308 170.328,206.292 170.35,206.279C170.372,206.267 170.395,206.26 170.42,206.26C170.452,206.26 170.487,206.272 170.523,206.297C170.56,206.321 170.602,206.348 170.649,206.377C170.697,206.406 170.752,206.433 170.814,206.457C170.877,206.481 170.952,206.493 171.039,206.493C171.167,206.493 171.265,206.464 171.335,206.406C171.405,206.348 171.44,206.261 171.44,206.145C171.44,206.079 171.423,206.024 171.388,205.983C171.353,205.942 171.308,205.907 171.252,205.879C171.196,205.851 171.133,205.827 171.061,205.807C170.989,205.787 170.916,205.765 170.841,205.741C170.765,205.717 170.692,205.687 170.62,205.653C170.548,205.619 170.485,205.574 170.429,205.518C170.373,205.463 170.328,205.393 170.293,205.311C170.258,205.228 170.241,205.125 170.241,205.003C170.241,204.904 170.26,204.809 170.299,204.717C170.338,204.624 170.395,204.542 170.471,204.471C170.546,204.399 170.639,204.341 170.748,204.298C170.858,204.254 170.984,204.232 171.127,204.232C171.286,204.232 171.433,204.257 171.569,204.306C171.704,204.355 171.819,204.423 171.912,204.511L171.777,204.768Z" style="fill:rgb(63,48,88);fill-rule:nonzero;"/>
                <path d="M173.3,205.353L173.407,205.353C173.497,205.353 173.562,205.325 173.602,205.269L174.271,204.374C174.303,204.332 174.337,204.302 174.375,204.286C174.413,204.269 174.459,204.261 174.513,204.261L174.987,204.261L174.145,205.345C174.091,205.416 174.034,205.466 173.976,205.497C174.018,205.514 174.057,205.536 174.091,205.563C174.125,205.59 174.157,205.627 174.189,205.672L175.053,206.905L174.566,206.905C174.535,206.905 174.508,206.903 174.485,206.898C174.463,206.893 174.443,206.886 174.426,206.878C174.409,206.869 174.394,206.859 174.382,206.846C174.37,206.833 174.359,206.818 174.348,206.801L173.668,205.85C173.645,205.817 173.617,205.794 173.586,205.78C173.554,205.766 173.51,205.759 173.453,205.759L173.3,205.759L173.3,206.905L172.753,206.905L172.753,204.261L173.3,204.261L173.3,205.353Z" style="fill:rgb(63,48,88);fill-rule:nonzero;"/>
                <path d="M176.619,206.468C176.707,206.468 176.787,206.453 176.857,206.423C176.928,206.394 176.987,206.351 177.036,206.297C177.085,206.242 177.122,206.176 177.147,206.098C177.173,206.02 177.185,205.933 177.185,205.836L177.185,204.261L177.732,204.261L177.732,205.836C177.732,205.996 177.706,206.143 177.655,206.278C177.603,206.412 177.529,206.527 177.433,206.625C177.337,206.722 177.221,206.798 177.083,206.852C176.946,206.907 176.791,206.934 176.619,206.934C176.446,206.934 176.291,206.907 176.153,206.852C176.015,206.798 175.898,206.722 175.802,206.625C175.706,206.527 175.632,206.412 175.581,206.278C175.529,206.143 175.503,205.996 175.503,205.836L175.503,204.261L176.05,204.261L176.05,205.836C176.05,205.933 176.063,206.02 176.088,206.098C176.114,206.176 176.151,206.242 176.199,206.297C176.248,206.351 176.308,206.394 176.378,206.423C176.449,206.453 176.529,206.468 176.619,206.468Z" style="fill:rgb(63,48,88);fill-rule:nonzero;"/>
                <path d="M180.499,204.462C180.499,204.489 180.495,204.518 180.486,204.546C180.477,204.575 180.463,204.601 180.446,204.626L179.142,206.477L180.463,206.477L180.463,206.905L178.44,206.905L178.44,206.692C178.44,206.667 178.444,206.641 178.453,206.616C178.461,206.592 178.473,206.569 178.489,206.548L179.798,204.689L178.533,204.689L178.533,204.261L180.499,204.261L180.499,204.462Z" style="fill:rgb(63,48,88);fill-rule:nonzero;"/>
                <path d="M181.816,206.905L181.266,206.905L181.266,204.261L181.816,204.261L181.816,206.905ZM182.344,203.508L181.756,204.03C181.742,204.041 181.73,204.049 181.718,204.056C181.705,204.063 181.693,204.068 181.68,204.072C181.667,204.075 181.653,204.078 181.638,204.079C181.623,204.08 181.606,204.081 181.588,204.081L181.224,204.081L181.588,203.587C181.601,203.569 181.615,203.554 181.627,203.544C181.64,203.534 181.654,203.526 181.669,203.52C181.684,203.515 181.702,203.511 181.721,203.51C181.741,203.509 181.763,203.508 181.789,203.508L182.344,203.508Z" style="fill:rgb(63,48,88);fill-rule:nonzero;"/>
            </g>
        </g>
        <g transform="matrix(4.16667,0,0,4.16667,0,0)">
            <path d="M98.427,189.057C96.17,185.403 92.141,182.959 87.531,182.959C80.455,182.959 74.719,188.696 74.719,195.772C74.719,202.848 80.455,208.583 87.531,208.583C92.13,208.583 96.151,206.152 98.411,202.512L86.338,195.826L98.427,189.057Z" style="fill:rgb(236,101,58);fill-rule:nonzero;"/>
        </g>
    </g>
</svg>
