<svg height="13" viewBox="0 0 14 13" width="14" xmlns="http://www.w3.org/2000/svg"><path d="m306.040963 1754.17254c-.09762-.07085-.149388-.18962-.134005-.30972l.503775-3.97296-2.743399-2.91837c-.083125-.08845-.110784-.21462-.073215-.32969.037125-.11507.133857-.20056.253071-.22319l3.934799-.74886 1.92739-3.5109c.116847-.2118.464579-.2118.581279 0l1.92739 3.5109 3.934947.74886c.119362.02248.216094.10797.253514.22304.037273.11507.009319.24139-.073214.32969l-2.743251 2.91852.503183 3.97296c.015678.1201-.03609.23887-.134005.30972-.097619.07129-.226891.08386-.335899.0318l-3.623157-1.70701-3.623156 1.70701c-.044669.0213-.093182.03195-.141105.03195-.069368 0-.137406-.0216-.194942-.06375z" fill="#918aa8" transform="translate(-303 -1742)"/></svg>