<svg height="24" viewBox="0 0 24 24" width="24" xmlns="http://www.w3.org/2000/svg"><path d="m738 1048c-6.627417 0-12 5.37258-12 12s5.372583 12 12 12 12-5.37258 12-12c-.007461-6.62432-5.375676-11.99254-12-12zm0 21.86667c-5.44921 0-9.866667-4.41746-9.866667-9.86667s4.417457-9.86667 9.866667-9.86667 9.866667 4.41746 9.866667 9.86667c-.006115 5.44667-4.419992 9.86055-9.866667 9.86667zm-1.066731-16c0-.58911.477563-1.06667 1.066667-1.06667s1.066667.47756 1.066667 1.06667c0 .5891-.477563 1.06666-1.066667 1.06666s-1.066667-.47756-1.066667-1.06666zm3.466667 11.19964v1.60071c0 .14708-.119231.26631-.266309.26631h-4.267368c-.147082 0-.266323-.11922-.266323-.26631v-1.60071c0-.07063.028059-.13837.078005-.18831.049945-.04995.117686-.078.188318-.078h1.06701v-5.86667h-1.06701c-.147082 0-.266323-.11922-.266323-.26631v-1.60071c0-.07063.028059-.13837.078005-.18831.049945-.04995.117686-.078.188318-.078h2.934034c.070631 0 .138369.02805.188313.078.049943.04994.077999.11768.077997.18831v7.73369h1.067024c.07063 0 .138369.02805.188312.078.049943.04994.077997.11768.077997.18831z" fill="#51616f" opacity=".281118" transform="translate(-726 -1048)"/></svg>