<svg height="11" viewBox="0 0 12 11" width="12" xmlns="http://www.w3.org/2000/svg"><path d="m9.31445337 2.20000076-3.11991415.10064239c-.48308348.04025696-.92591.24154175-1.26809414.58372588l-4.48865067 4.48865068c-.58372588.58372587-.58372588 1.52976435 0 2.11349023l2.85824392 2.85824396c.2817987.2817987.66423979.4428265 1.04668088.4428265s.76488218-.1408994 1.04668088-.4428265l4.48865067-4.48865071c.34218414-.34218413.54346894-.78501066.58372584-1.28822262l.1207709-3.09978567c.0201285-.34218413-.1207709-.66423979-.3623126-.90578153-.24154174-.24154174-.5635974-.36231261-.90578153-.36231261zm-1.75117762 4.38800829c-.7447537 0-1.34860805-.60385435-1.34860805-1.34860805s.60385435-1.34860805 1.34860805-1.34860805 1.34860805.60385435 1.34860805 1.34860805-.60385435 1.34860805-1.34860805 1.34860805z" fill="#918aa8" transform="translate(.725 -2.200001)"/></svg>